<svg width="70" height="70" viewBox="0 0 70 70" fill="none" xmlns="http://www.w3.org/2000/svg">
<path d="M64.5002 0H17.8336C17.1893 0 16.6669 0.522375 16.6669 1.16667V12.8333C16.6707 16.0533 19.2802 18.6629 22.5002 18.6667H27.1669V22.1667H26.0002C26.0014 21.5495 25.5218 21.0382 24.9059 21L6.23924 19.8333C5.59612 19.7934 5.04239 20.2824 5.00243 20.9255C5.00097 20.9503 5.00024 20.9751 5.00024 21V25.6667C5.00024 26.311 5.52262 26.8333 6.16691 26.8333H6.23924L24.9059 25.6667C25.5218 25.6285 26.0014 25.1172 26.0002 24.5H27.1669V26.8333C27.1669 27.4776 27.6893 28 28.3336 28H30.6669V31.5C30.6669 32.1443 31.1893 32.6667 31.8336 32.6667H33.0002V33.8333C33.0002 34.4776 33.5226 35 34.1669 35C34.8112 35 35.3336 34.4776 35.3336 33.8333V32.6667H36.5002C37.1445 32.6667 37.6669 32.1443 37.6669 31.5V28H40.0002C40.6445 28 41.1669 27.4776 41.1669 26.8333V18.6667H47.0002V51.3333H35.3336C38.5536 51.3295 41.1631 48.72 41.1669 45.5V38.5C41.1669 37.8557 40.6445 37.3333 40.0002 37.3333H28.3336C27.6893 37.3333 27.1669 37.8557 27.1669 38.5V39.6667H26.0002C25.356 39.6667 24.8336 40.189 24.8336 40.8333C24.8336 41.4776 25.356 42 26.0002 42H27.1669V45.5C27.1707 48.72 29.7802 51.3295 33.0002 51.3333H23.6669C20.4469 51.3371 17.8374 53.9467 17.8336 57.1667V68.8333C17.8336 69.4776 18.356 70 19.0002 70H64.5002C65.1445 70 65.6669 69.4776 65.6669 68.8333V1.16667C65.6669 0.522375 65.1445 0 64.5002 0ZM23.6669 23.4045L7.33358 24.4253V22.2413L23.6669 23.2622V23.4045ZM29.5002 45.5V39.6667H38.8336V45.5C38.8336 47.433 37.2666 49 35.3336 49H33.0002C31.0672 49 29.5002 47.433 29.5002 45.5ZM47.0002 67.6667H20.1669V57.1667C20.1669 55.2336 21.7339 53.6667 23.6669 53.6667H47.0002V67.6667ZM35.3336 30.3333H33.0002V28H35.3336V30.3333ZM38.8336 25.6667H29.5002V18.6667H38.8336V25.6667ZM63.3336 67.6667H49.3336V17.5C49.3336 16.8557 48.8112 16.3333 48.1669 16.3333H22.5002C20.5672 16.3333 19.0002 14.7664 19.0002 12.8333V2.33333H63.3336V67.6667Z" fill="white"/>
<path d="M55.1669 15.1667C58.3885 15.1667 61.0002 12.5549 61.0002 9.33333C61.0002 6.11173 58.3885 3.5 55.1669 3.5C51.9453 3.5 49.3336 6.11173 49.3336 9.33333C49.3374 12.5533 51.9469 15.1629 55.1669 15.1667ZM55.1669 8.16667H51.8816C52.3742 6.77323 53.689 5.83946 55.1669 5.83333C57.0999 5.82531 58.6733 7.38588 58.6813 9.31875C58.6894 11.2518 57.1288 12.8252 55.1959 12.8332C53.7074 12.8393 52.3778 11.9034 51.8816 10.4999H55.1669C55.8112 10.4999 56.3336 9.97748 56.3336 9.33319C56.3336 8.6889 55.8112 8.16667 55.1669 8.16667Z" fill="white"/>
<path d="M52.8336 25.6667C52.1893 25.6667 51.6669 26.1891 51.6669 26.8334V29.1667C51.6669 29.811 52.1893 30.3334 52.8336 30.3334C53.4779 30.3334 54.0002 29.811 54.0002 29.1667V26.8334C54.0002 26.1891 53.4779 25.6667 52.8336 25.6667Z" fill="white"/>
<path d="M52.8336 32.6667C52.1893 32.6667 51.6669 33.1891 51.6669 33.8334V36.1667C51.6669 36.811 52.1893 37.3334 52.8336 37.3334C53.4779 37.3334 54.0002 36.811 54.0002 36.1667V33.8334C54.0002 33.1891 53.4779 32.6667 52.8336 32.6667Z" fill="white"/>
<path d="M52.8336 39.6667C52.1893 39.6667 51.6669 40.1891 51.6669 40.8334V43.1667C51.6669 43.811 52.1893 44.3334 52.8336 44.3334C53.4779 44.3334 54.0002 43.811 54.0002 43.1667V40.8334C54.0002 40.1891 53.4779 39.6667 52.8336 39.6667Z" fill="white"/>
</svg>
