<svg width="70" height="70" viewBox="0 0 70 70" fill="none" xmlns="http://www.w3.org/2000/svg">
<g clip-path="url(#clip0_1_181)">
<path d="M54.8313 23.4527V3.69134C54.8301 2.71268 54.4408 1.77443 53.7488 1.08241C53.0568 0.390384 52.1185 0.00109681 51.1399 -6.10352e-05H18.6916C17.7129 0.00109681 16.7747 0.390384 16.0827 1.08241C15.3906 1.77443 15.0013 2.71268 15.0002 3.69134V23.4527C15.0005 23.9686 15.1094 24.4786 15.3196 24.9497C15.5299 25.4208 15.837 25.8424 16.2208 26.187C15.837 26.5317 15.5299 26.9533 15.3196 27.4244C15.1094 27.8955 15.0005 28.4055 15.0002 28.9214V62.3519C15.0013 63.3306 15.3906 64.2688 16.0827 64.9608C16.7747 65.6529 17.7129 66.0421 18.6916 66.0433H19.1931V68.98C19.1931 69.2338 19.2939 69.4773 19.4734 69.6567C19.6529 69.8362 19.8963 69.937 20.1501 69.937H26.986C27.2399 69.937 27.4833 69.8362 27.6628 69.6567C27.8422 69.4773 27.9431 69.2338 27.9431 68.98V66.0433H41.8884V68.98C41.8884 69.2338 41.9892 69.4773 42.1687 69.6567C42.3482 69.8362 42.5916 69.937 42.8454 69.937H49.6814C49.9352 69.937 50.1786 69.8362 50.3581 69.6567C50.5376 69.4773 50.6384 69.2338 50.6384 68.98V66.0433H51.1399C52.1185 66.0421 53.0568 65.6529 53.7488 64.9608C54.4408 64.2688 54.8301 63.3306 54.8313 62.3519V28.9214C54.8309 28.4055 54.7221 27.8955 54.5118 27.4244C54.3015 26.9533 53.9945 26.5317 53.6106 26.187C53.9945 25.8424 54.3015 25.4208 54.5118 24.9497C54.7221 24.4786 54.8309 23.9686 54.8313 23.4527ZM26.029 68.023H21.1071V66.0433H26.029V68.023ZM48.7243 68.023H43.8024V66.0433H48.7243V68.023ZM52.9172 28.9214V62.3519C52.9166 62.8231 52.7292 63.2748 52.396 63.608C52.0628 63.9412 51.6111 64.1286 51.1399 64.1292H18.6916C18.2204 64.1286 17.7686 63.9412 17.4355 63.608C17.1023 63.2748 16.9148 62.8231 16.9142 62.3519V28.9214C16.9148 28.4502 17.1023 27.9985 17.4355 27.6653C17.7686 27.3321 18.2204 27.1447 18.6916 27.1441H51.1399C51.6111 27.1447 52.0628 27.3321 52.396 27.6653C52.7292 27.9985 52.9166 28.4502 52.9172 28.9214ZM18.6916 25.23C18.2204 25.2294 17.7686 25.042 17.4355 24.7088C17.1023 24.3756 16.9148 23.9239 16.9142 23.4527V3.69134C16.9148 3.22014 17.1023 2.7684 17.4355 2.43521C17.7686 2.10202 18.2204 1.91458 18.6916 1.914H51.1399C51.6111 1.91458 52.0628 2.10202 52.396 2.43521C52.7292 2.7684 52.9166 3.22014 52.9172 3.69134V23.4527C52.9166 23.9239 52.7292 24.3756 52.396 24.7088C52.0628 25.042 51.6111 25.2294 51.1399 25.23H18.6916Z" fill="white"/>
<path d="M48.4852 6.93542H44.9305C44.6767 6.93542 44.4333 7.03625 44.2538 7.21573C44.0743 7.39521 43.9735 7.63864 43.9735 7.89246V19.3768C43.9735 19.6307 44.0743 19.8741 44.2538 20.0536C44.4333 20.233 44.6767 20.3339 44.9305 20.3339H48.4852C48.739 20.3339 48.9825 20.233 49.162 20.0536C49.3414 19.8741 49.4423 19.6307 49.4423 19.3768V7.89246C49.4423 7.63864 49.3414 7.39521 49.162 7.21573C48.9825 7.03625 48.739 6.93542 48.4852 6.93542ZM47.5282 18.4198H45.8876V8.84949H47.5282V18.4198Z" fill="white"/>
<path d="M44.9305 44.1646H48.4852C48.739 44.1646 48.9825 44.0637 49.162 43.8843C49.3414 43.7048 49.4423 43.4614 49.4423 43.2075V31.7231C49.4423 31.4693 49.3414 31.2259 49.162 31.0464C48.9825 30.8669 48.739 30.7661 48.4852 30.7661H44.9305C44.6767 30.7661 44.4333 30.8669 44.2538 31.0464C44.0743 31.2259 43.9735 31.4693 43.9735 31.7231V43.2075C43.9735 43.4614 44.0743 43.7048 44.2538 43.8843C44.4333 44.0637 44.6767 44.1646 44.9305 44.1646ZM45.8876 32.6802H47.5282V42.2505H45.8876V32.6802Z" fill="white"/>
</g>
<defs>
<clipPath id="clip0_1_181">
<rect width="70" height="70" fill="white" transform="translate(0.000244141)"/>
</clipPath>
</defs>
</svg>
